/* XPM */
static char *bb81f50a8d674a728ce7a840e27f86e5DxSq6If2vAp38tHR[] = {
/* columns rows colors chars-per-pixel */
"32 32 189 2 ",
"   c #020203",
".  c #0B0706",
"X  c #0D0A0B",
"o  c #120D0C",
"O  c #18110E",
"+  c #0D0D12",
"@  c #110E11",
"#  c #141314",
"$  c #191414",
"%  c #1C1815",
"&  c #12161C",
"*  c #1A1719",
"=  c #1D1B1C",
"-  c #261D1B",
";  c #24231E",
":  c #161B25",
">  c #1C1C23",
",  c #221E21",
"<  c #1D2126",
"1  c #1F262A",
"2  c #192233",
"3  c #242224",
"4  c #2A2525",
"5  c #2E2A24",
"6  c #23242A",
"7  c #2C262A",
"8  c #25292E",
"9  c #2C2B2B",
"0  c #322C2B",
"q  c #2C2D33",
"w  c #332F31",
"e  c #2F3139",
"r  c #343334",
"t  c #3A3532",
"y  c #32343D",
"u  c #3B363A",
"i  c #3B3A3B",
"p  c #3D3A3C",
"a  c #463C37",
"s  c #433D3B",
"d  c #45403C",
"f  c #4B433E",
"g  c #52463F",
"h  c #3B3B42",
"j  c #383C46",
"k  c #433E41",
"l  c #3E434B",
"z  c #444243",
"x  c #4B4544",
"c  c #4B4947",
"v  c #42424A",
"b  c #4B464A",
"n  c #4C494B",
"m  c #534A44",
"M  c #534D4C",
"N  c #54534F",
"B  c #5C534B",
"V  c #434555",
"C  c #454B54",
"Z  c #4C4C55",
"A  c #4E4A58",
"S  c #524E52",
"D  c #4E565F",
"F  c #545254",
"G  c #5A5553",
"H  c #55555C",
"J  c #5A565B",
"K  c #5B595A",
"L  c #5D5B5C",
"P  c #625A52",
"I  c #625D5E",
"U  c #695F5C",
"Y  c #66645D",
"T  c #6A625E",
"R  c #73665E",
"E  c #565A66",
"W  c #5C5C62",
"Q  c #625F62",
"!  c #5F646D",
"~  c #656264",
"^  c #6B6463",
"/  c #64656A",
"(  c #6A666A",
")  c #6C6A6D",
"_  c #746B65",
"`  c #736B69",
"'  c #76706D",
"]  c #7C736E",
"[  c #676A73",
"{  c #6D6D73",
"}  c #706E72",
"|  c #726E78",
" . c #6D7077",
".. c #747274",
"X. c #7A7474",
"o. c #7D7A75",
"O. c #75757A",
"+. c #7A767A",
"@. c #7B7A7C",
"#. c #807773",
"$. c #847B75",
"%. c #837C7B",
"&. c #8A7F7C",
"*. c #8C827D",
"=. c #91827F",
"-. c #7B7C83",
";. c #7C7B87",
":. c #827D81",
">. c #7E818B",
",. c #848284",
"<. c #8A8584",
"1. c #8D8986",
"2. c #85848B",
"3. c #898688",
"4. c #85888F",
"5. c #8C8A8C",
"6. c #928A85",
"7. c #978B89",
"8. c #938C8A",
"9. c #95908C",
"0. c #9B928D",
"q. c #848593",
"w. c #8D8C92",
"e. c #928E92",
"r. c #8D919D",
"t. c #959294",
"y. c #9B9494",
"u. c #9D9896",
"i. c #93949A",
"p. c #9A9699",
"a. c #979899",
"s. c #9D9B9C",
"d. c #A1928F",
"f. c #A19793",
"g. c #A49A95",
"h. c #A29D9D",
"j. c #A89D98",
"k. c #A6A09D",
"l. c #ABA29D",
"z. c #B1A79C",
"x. c #969AA5",
"c. c #9E9DA3",
"v. c #A29EA3",
"b. c #9DA1AA",
"n. c #A5A2A4",
"m. c #AAA4A3",
"M. c #AFA9A6",
"N. c #A5A5AA",
"B. c #AAA6AA",
"V. c #A7A8AD",
"C. c #ACAAAC",
"Z. c #B3AAA3",
"A. c #B6A9A7",
"S. c #B3ACAA",
"D. c #BAB2AD",
"F. c #B9B4AE",
"G. c #A8A8B2",
"H. c #ADADB3",
"J. c #B6AFB1",
"K. c #B1AFB9",
"L. c #B4B2B4",
"P. c #BBB4B3",
"I. c #B5B6BC",
"U. c #BBB6BB",
"Y. c #BCBABA",
"T. c #C2BBB6",
"R. c #C2BCBA",
"E. c #CABFBB",
"W. c #C7C1BD",
"Q. c #CBC3BE",
"!. c #D1C3BC",
"~. c #BBBCC2",
"^. c #C2BFC3",
"/. c #C4C1C2",
"(. c #CBC5C4",
"). c #C5C4CB",
"_. c #CBC6C9",
"`. c #CDCACD",
"'. c #D3CAC5",
"]. c #D3CDCC",
"[. c #CECCD0",
"{. c #CED0D3",
"}. c #D6D1D3",
"|. c #D4D2D4",
" X c #DBD8D6",
".X c #E1DCD8",
"XX c #DAD8E2",
"oX c #E1DFE3",
"OX c #E2E1E5",
/* pixels */
"..{ c X.v ].P.l.n.X S   B _ a I u ^. X^.B.v.8 k [ {.(.V./.Y.b.O.",
".....XS.h.W P.' Q - ' N * _ _ o A.S.P.R.:.@ ~.v.r.oX8.p.n.k.O.,.",
"~ ~ f N J x 0 9 u &.` J Q y.6., &.j.$.m ( | XX-.E s k +.@.X.,.( ",
"p.3.a.y.P.k.n.M.:.6.+.5.R.T.D.m.0._ 0 x k s e.B.i.@.+.) F Y ] u.",
"L I -.8.D.D.m.7._ x G t  X#.K - a m ^ w u <.j.j.s f $ u.z +.5...",
" X} v.k 0 M X # . O X.t.; g R Z.7.O o $.g.7._ #.; P g z.:.L.I.L ",
" Xn.4.N.OX`.Q e _.T.l.%.4 T.Q.m.7.f.z 0.Z.d.&.6.&.%.J d...V.6 C ",
"W.a.i.K.C./.e.~.o G _ Q G ^.%.0.$.#.q Z.Z.#.$.d.0.0.; ^ ,.z Z 6 ",
"h 2.i.{ Y._.9 K : S.r M 1.K <.%.*.i o.] P T T _ t t , 6.X.L.C.B.",
"/ w * e.H.3 c d P.%.b ].h.O.4 *.i ~ t - ; g m M B G _ 0.D.<.( 3.",
"+ L.).| v w.E.g.].P.F ].5.%.t.# ^ m.l.u Q.$.c 5 t k 7.T ^ ..t.9 ",
"& :.X.{ < 3.` ..Z.!.@ 5.f k.O.. '.S.p.N .X&.w z x %.Y X.B i.r.V.",
"8 {.c.H.H.5.2.;.M '.B.,.n S.!  .Q.9.....G ; 0 t *.a T.^ j.i y C ",
"oXc.C |.t.v.;.H.F R.p.@.@.t.D q Q.1.,.# 8.M z f g.z.] T #.S C j ",
"q.2.E # k h w :.~ 8.u.x.w.t.#   ^ N ~ % 1.G ) X.8.0._ X.0.U K U.",
"! E 6 |.p.N.w.P.E > W.`.|.Y.5.,.( ^ ,.y.' M *.S.v.m k.+.o.X _ e.",
"I U._./.F.H.y C  .{.].h.Y.L.i.-.,...^ +.C T.W.n.M.X M   B U s t ",
"P.R.(.P.e.# Y.b.r.OX8.p.s.s.3.,.O.^ }.k.y./ M.o.~ , ' m # T T o ",
"B =.a = ~ { |.;.E x I t.9.a.+.' ~ ~ f T $.b k 7 w +.] x s U #.. ",
"$.#.%.%.} H | K.V.C.n.@.q 6 ] u.5.,.h.L P.k.y.B.f.-.%.e.^ y.T.n.",
"B B 1.R.W C v.( Y.H.c.2. .O.w.,.~ L 3.= 1.y.:.:.b 4 0 K 6.X.K 5 ",
"0.O X ,.k 8 +./ w.9 ~ n s.C.n.Z Y.O.V...p.p p ; 8.t.^ H 4 a R A.",
"6.8.v M.'./ U.;.I.b 5.~.H.G.q j  Xn.>.a.O.c F.M.n...n./ s ^.R.J.",
"&.%.q S.M.N.N.G.i.& ,.s...S Z 3 F.k.5.E < ^.M.5.n.4.i.C 7 E.U 7.",
"6.p 3.6.,.O.p > y { r 3 L C.I.p.n 3.p.y 8 b U +.^ W u o %.L 9._ ",
"s ' 9 # t a y.3.>.c.l G.(.i.O.@./ i * / +.} g.-.O.H @.# 3.O.= %.",
",.u.h.7 { _.Y.c.V.~.E 2 +.3.t.q & N.K.Z V Y.p.[ { V 2.# ..-.,.# ",
"W.M.1.3 L././ x.-.b.D E v.N.x.x.: :.<.q y @.;.x.n.A V # Y j.3.# ",
"W.8.~ Y I r S S t.J 5.y._.q.V V > `.^.r.4.K l H J o.s.>.H C. . .",
"T.%.O.3 F.n r s 0.D.$.+.8.O.j j [./.>.>.4.n.[ v.n T.3. .O.3.l 1 ",
"x b ~ X 8.M ( ~ u.f.#.' 1.X.5.).r.x.l : F > e +.~ s.u.t.t.5.*   ",
"X.' %.0.^ G 7.S.s.a 8.<.%.# ~ { >.H > OXB.H.b.S.W <  X{.oXJ.,.3."
};
