/* XPM */
static char *_6f4e19dd1f84d8fbf36a1fd9a7c1c43AkcoBMAYYlBxV9zs[] = {
/* columns rows colors chars-per-pixel */
"68 64 21 1 ",
"  c #E3E3E5",
". c #E6E6E6",
"X c #E7E7E9",
"o c #E8E8EA",
"O c #EAEAEA",
"+ c #EBEBED",
"@ c gray93",
"# c #EDEDF0",
"$ c #EEEEF0",
"% c #EFEFF1",
"& c #F0F0F2",
"* c #F2F2F4",
"= c #F4F4F4",
"- c #F4F4F6",
"; c #F6F6F6",
": c gray97",
"> c #F6F6F8",
", c gray98",
"< c #FAFAFC",
"1 c gray99",
"2 c #FDFDFE",
/* pixels */
"&$+O>>;*$$+,;**$$$X,;**$$+;;;&&&@O;;;&&$+$;;**$@+>;;*$$+O>;**$++,;;*",
"*&$@,,>**$@<,;;*$$+<,>;&$$>,;;&&$@,>;*&&$$,>>*&$+<;;;*$$+,;>**$@,,>*",
">*&$,,>>**$2,,;***@2,>;**$,<,;;*$$2,,;;*$&,,;;*&$<,,;**$+<,;;;*$2,,;",
">*@+O,,>;*+OO,,,*$+X,,>;*+OO2>>*&+O$<>>;++X,>,;$+OO,,>>@+O,,>>*+OX<,",
">*$@+XX;*$$+OXX;**@+XX<*&$++XX>*$$+O.<;$$++X ,&&@+XX;*&$++X.,*$$++X$",
";&*$++X+>*$$+OX>$*$@+X.**&$@OX>;*$$+XX>**$++.;;&$$+OX;*$$++X***$++XX",
";;*&$@+$>**$++O>;**$++X;;*&$++>>**$$+X>**$$@+,;**$$+O>;*$$++;;;**$++",
",;;**$+$<>;*$$+,>>**$@O,>**&$+,>;**$$O,,;*$$+,,;**$$+>>;**$@>;;;*$++",
"<,>;**$$<,>;**$,,,;**$+,,;;$&$<,>>**$+<,;;*$$2,>;;*$$<,;***$<,,;**&@",
".,,>;**O,,>;**+X,,;;$*+;,,;;*$+2,,;**+@2>;;*$X2,>;**X.,,>>*$+<,;;;*+",
"+X$<,$$+@X<>>$@+XX<>*$@+X<,;$@+XX<>$$++X<>>$$+XX<,&$@+X*<,$$++X<<*$@",
"++XO**$$+XO;*$$++XX;*$$+OX&**$++XX**$$+OX+**$@+XX**$$+OX **$++OX>*$$",
"$@+X;**$$+@;;&$$$+X;**&@++*;**$@+X;;$*$@++;*&&$+O;>*&$++X;;$$$++;;&&",
"$$++,>;*$@+,>;**$+X>;;*&@+;;;**$++;;>$&$++>;;&$@+>>;*&$+O;;**$++,;;*",
"*&$@,>;;*$@2,;;&*$@,,;**&$,,>;**$@,,;&*&$&,;;*&$$,,>;*&$O,,;**$$<,;;",
";*$@2,>>**@;2,>;;$@2,>;;*&;,,>;**$2<,;;*$+<,;;**$2,,>;*&O<,>;**$,,,>",
",;@++X<>;&@+.2,>;@++X,>;*++X2<;>++XX<,,*++X,,,>$++.,,>*@+X<,>>$@+X,,",
"*&$@+XX>*$$$+X >*$$@XX$**$++XX>*$$++XO*&$++XX>*$$+OXX**$++XX2*$$++X ",
">&&$++X+;*&$++X;**$$+OX**$$++X***$$++X;**$@+X>***$+O.*;&$$+X;**&$$XX",
",;;&$@++>>*$$+X>>**$$+O>>**$++,;;*$@+X;;**$++,;;*$$+O,;&*$++>;;*$$++",
",,>**$$$,>;*$$+,>;**$$O>>;**$@,>;;*$$O,,***$@<,>***$+<>;**$$>,;;**$$",
",,>;**&&,,;;**$<,,>**$@<,;***$2,>;;*$@<,>;**$2,>;>*$@2,>;**$<<,;**$$",
"O2,>>*@+X,,>>*+X2,,>*$+ ,,>;*OX;,,;*&+X<,;>*++$,>>;*+X<,>>*$O+<>>>*+",
"OXX,>$@+OX&,*$++X.<,$$+OX+,&$$+OX<,$$++XX<;$++@X<,$$++O.,>$++OX,>*$@",
"@+XX**&$+OX>**$$+XX*&&$@+X**&$@+XX**$$@+XO*$*@++O**&$$+X.**&$++X;$*$",
"$$+X>;*&$++>;**$@+O>**&$+O*>;&$$+X>>**$+++;**$@++>;**$++O>**$$++;;;$",
"&$++;;**&$+,,;;&$@O>;>*$$+>,;&*$$+>;;*$$@$,;**$$+>>;*$$@+>;;*$++,,>*",
";&$@,,;;*&$<,>;&*$@<,>>*$@,,,;**$+,,;>**$$,>;;*$$,,>>**$+,>>>*$@2,>>",
">*$O2<>;;&&X2,,;**+,,>;;**X2,>;**@$,,;;*$X2,>>**$+,,,;&&X2<>;***X<,;",
">*@+OO<,;$++X+<>*$++O<<>$$+X&,>>$++X2,>$$++ 2<>$@+X,>>&$+O.,,>$++X;>",
"*&$$++XX;*$@OXX;*$$+OX $*$$+O.**$$++X.**$$+XX>*$$+XXX**$@+OX***$++XX",
">;*$@+X+;&$$@+X*>*$$+OX;**$+OX>;*$+++X;**$@+O;;*$$++X>**$$++*;*$$++X",
">;*&$$+$>;**$@O,>**$$+O;>**$$+>>>**$+X>;;&$@+,;;*$$++>>;*$$+>;;**$@+",
"2,;;*$$$,>>$*$+<,>>*$++<>;**$@<,>**$$+,,>$*&@,,;;*&$@,>;**$$,,;;*$$@",
",,>;**$*,,;;**@<<,>;*$+<,>;**$2,,>**$@<,>;**$22;>>*&+<,>>;*$,<,;>*$$",
"O&,,>*++X2,;>*+++<>>;++X,,>;*@X.,,;;$+O<,>;*$XX,,;;$+O;,>>*+OX,,;;*@",
"@OX,*&$@OX <*$$@XX;*$$@@O.<&&$@+X$>$$$+XX<**$+XXO>&$$+XX2**$+XX ,&$$",
"@+XX;&&$@+X>;&$$+X.>*$$$+X*;*&@+O.>*$$++X+**$@++X>;*$++XO**$$++X>**$",
"$@+O;*&&$++>;**$++X>;**$+@;;*&&@++;;**$@++;;**$++;;&*$@+X;>*$$++>;*$",
"*$++,,;*&$@<,>*$$++,;>*$$@;>;;*&++,;;**$@$>>**$$+>;;**$$+>>>*$$+,,>*",
"**$$<,;;*$$2,,;;*$+<,;;**$<,>;**$$,,;;**$$<,;;**@,,>>**$+,,;;*$$2,;;",
">**XO,,>;*$X2,>;>*X.<,;;*$X2,,;**+.<,;;*$O,,>;**+O<,>;**+,,,;**+O<,,",
">$$+XX>>;$$@OX,,*$@+X$,;$$++.<>*$@+X+,,$+++.,,&$++X 2;$$++X<,>$$+XX,",
">*$$++XO**$@+XX**$$++X.**$+@OX;*$$++XX**$$+XO;;&$++XX;*$@+OX***$++XX",
">**$$+++>***$+O>>*&$+OX*&&&@++>***$@+X;**$$+X>;*&$@+X>**$$++*>*$$++X",
",;>*$$+@;;*$$@+,>;*$$+X,;;&&@+,;;*&$+O,;**$$@<;;**$++,;;*$$+>>;;*$++",
"<,>>**$$,>;**$@<,>;*&$+,>;*&$$,,>;*$$@<>>**$$2,;;*$$+,>;;**$,,>;**$+",
"2,,>**$+<,>;**&2,>>;*$@,,,;**$,,,;**$$2,,;>*$$<,;;**$2,,>**$$<,;>**$",
"+.<,>;++X*,>>$++X,,>>++X@<>;$++X,,>;++OX,;>&+OX<,>;@+XX<>>$$+.>,>>@+",
"+OXX**$+++X>*$$++X.**$$+XX,&*$++X.&*$@+XX;*&$++X.**$$+XX$;*$++X.;*$$",
"+++X>**$++X>**$$+OX;**$@+X*;*$$@OX;**$$+X+;&&$++X>**$$+OX;**$++X;**$",
"$+++>>*$$++,>;*&$+X>;**$++;>>*&$+O;>**$$++>>*&$++,>**$$+X>>**$++,;;$",
"*$$+,>;**$@,,;***$+,:;&*$$>,;**$$$,;;**$@$,>;*&$+,,;*&$$O,>>**$+,,;;",
">*$@2,>;**$2<,>>*$@<,>;**$,<,>;*$$<,>>**$*,,>;;$$<,>>;*$@,,>>**$2,>;",
";**+O<,;;*+X@,>;;*+X2,;;*@+*,,;**+X<,;>*+XX,,;;*+X<,>;*$OX<,;>*+X>,>",
",&$@OX.,&&$+OX<,$$++O.2*$$++O2,&$++O.<>&$++O$>&$@+OX,,$$++X*,*$$++.<",
">**$++X+;*$$+OX**&$@+X.**$$+XX>**$++X ***$++X>**$$+XO;;&$++X***$$+XX",
";;*$$+++>**$$++>;*&&++X;>*$$++>;;$$$+X;;*$$+O>;**$++X>&&$$+@*>**$$++",
",;>*$$@$>>**$$+,;>**$++>>**$$+<,>**$+O,;;**$+,,;**&@+,;**$$@>;>;*$++",
",,>;**$$<,>;*$@<,>;**$+,,>>*$$<,>;**$+,,;**$$<,;>*$$+,,;;*$$,,;;**$$",
"*,,>>*&X<,>>**$+,,;;**O<,>>;*$X2,>>>*+<,,;**$.2,,>;&+><,>>*$X2,;>**$",
"+X2,>$$+OX,,>$++X>,>*++X.,>;$$+X$,;*$+OX,,>$@+X+,>*$+OX2,>$++O.,>;$@",
"++X.**$$+XX**&$++X >&$$+XX&;$$+++ *$$$+OXX**$@+XX**&$++X **$$+OX;&&$",
"$+OX>**$@+O>>*$$++X>**$+++*;**$++X;**$$+++>**$++X>;*$++XX>**$@+X;;*$"
};
