/* XPM */
static char *_40f338172234716e5349ad243bc1796p11waf6YGLqxxLJ1[] = {
/* columns rows colors chars-per-pixel */
"64 64 28 1 ",
"  c #black",
". c #00001C",
"X c #202020",
"o c #2C2C2C",
"O c gray19",
"+ c #343434",
"@ c gray22",
"# c #400000",
"$ c #4C0000",
"% c gray25",
"& c #484848",
"* c #4C4C4C",
"= c gray33",
"- c gray36",
"; c #646464",
": c gray44",
"> c #7C7C7C",
", c #C80000",
"< c #000000",
"1 c gray55",
"2 c #989898",
"3 c gray66",
"4 c #B4B4B4",
"5 c #C0C0C0",
"6 c #D0D0D0",
"7 c gainsboro",
"8 c #ECECEC",
"9 c gray99",
/* pixels */
"<<<<<<<<<<<<<<<<<<<33:<<<<<<<<<<<<<<<<<<<<<<<<<<<<<<<<<<<<<<<<<<",
"<<<<<<<<<<<<<<<<<<35521<<<<<<<<<<<<<<<<<<<<<<<<<<<<<<<<<<<<<<<<<",
"<<<<<<<<<<<<<<<<<<44542<<<<<<<<<<<<<<<<<<<<<<<<<<<<<<<<<<<<<<<<<",
"<<<<<<<<<<<<<<<=2235443:<<<<<<<<<<<<<<<<<<<<<<<<<<<<<<<<<<<<<<<<",
"<<<<<<<<<<<<<<=252>22441<<<<<<<<<<<<<<<<<<<<<<<<<<<<<<>::<<<<<<<",
"<<<<<<<<<<<<<<=251>;24642<<<<<<<<<<<<<<<<<<<<<<<<<<<<1>;;:<<<<<<",
"<<<<<<<<<<<<<<=16>>;>2643<<<<<<<<<<<<<<<<<<<<<<<<<<<42>=*;<<<<<<",
"<<<<<<<<<<<<<<273>:>X24642<<<<<<<<<<<<<<<<<<<<<<<<<241:*&=::<<<<",
"<<<<<<<<<<<<<273>::X ;368844<<<<<<47774<<<<<<<<<<<14>;=  &;;:<<<",
"<<<<<<<<<<<<273:::=  -268968888888888884<<<<<<<<1242=*  XX=;:<<<",
"<<<<<<<<<<1251;;::= X->68967777777779885<<<<<124441=@  XX@&=:<<<",
"<<<<<<<331231=;;>:= o;268996666666669864*112344321=@@ XXo@&=:<<<",
"<<<<<<<32>>;;*X;1:= o;26699655555555864>@*24421>:%&&@XXo@@&-;<<<",
"<<<<<<22>;==&X :2:= +>2648994444444864> o*%%:XXXX%;*Xoo@@@=:;<<<",
"<<<<<<22>;:;X  :2:= +2261699633333464>X &;*%X  o%;=&oo@@X@=:=<<<",
"<<<<<<21>>:X  X:2:= +2261>8963333344>X X:;*X   %2:&oo@@XX@=:<<<<",
"<<<<<<2>>>;  XX:2:= +1264>:99111134>X XX:;X   X=2;&o@@ XX@*:<<<<",
"<<<<<<<1>:= X+X:2:= +12676:;93::;43X X1o=X   XX11%=@@ XXX@*:<<<<",
"<<<<<<<11:=X++X:2:= +>26888::3;;=3XoX11oX   XX*4>=%&  XXo@*:<<<<",
"<<<<<<<11>;*&*=2666666>78 68;;==&@@@1: oX   X*41;**  XXXo@*:<<<<",
"<<<<<<<<1>>44224887653>77 #66=&&@oo1=# oX X**41;=*   XXXo@*:<<<<",
"<<<<<<<<11484234444443>76&#,64&&oX1=,#ooX X231:;*   XXXXo@&:<<<<",
"<<<<<<<<2248732222222>>333o$#44>>1=## @oX X>131=    XXXXo@=:<<<<",
"<<<<<<<<231784>;;>>>>>;32:1;;o>2>=X;;&ooX X=>13>*  XXXXXo@=><<<<",
"<<<<<<<<7111442>:;;;;;*;1;*:287321&&ooooX X@=>>>>>;XXXXXo@&*><<<",
"<<<<<<<67311122>:;::;;*X%;*28;@>@;;&ooo@  XX@=>121>>XXXXXXXX*><<",
"<<<<<<686431>>>>:::::;&X %;27X@4@X:&@o@   XXX@>2321>>XXXXX@@@;<<",
"<<41<686644>>>>;;;;;;;&@X 13>44>44>31@  XX@@@@>552>;-&XXoo@@;<<<",
"<<4568644211:;=X@*;;;;;&@X631     186  Xo&;:>15641;=&&XXo@==;<<<",
"<<4673221>::;= XX@*=====&@83:;=&=;:84 Xo&;;:>2541;=&&%=Xoo<<<<<<",
"<<5787>;;;;=X.XX@o@*====&@63X@@@@@X13Xo@%%&=>321;=&&&&==o<<<<<<<",
"<<57874>===X.  X@@o@*&&&*%O32XX XX23XXo@@@@@=;;&&&&&&=-:<<<<<<<<",
"<<578742::<>o   X@=&OOO&&&&&XXX XX@@@@@@@OO@@@@&&&&&=-;:=<<<<<<<",
"<<578742::<<>o  X@&&&&%OOOOOoX   XooOOOOOO&=&X====;;;;;:=<<<<<<<",
"<<57872::<<<<>* X@&&@@@@@@@@@@X X@@@@@@@@==@XX&;-;>>>:-:=<<<<<<<",
"<<58842><<<<<<-=@===@oX          Xo@&&&&&@X   X&;>232>-:=<<<<<<<",
"<<587224><<<<<<>;;=&@oooX                      X&>263:;:=<<<<<<<",
"<28892>42<<<<<<>>;=&@@oooX   XXXXX              &&265::1:==;<<<<",
"<7839627:<<<<<13>;==&@@@@o ooo<<<%XX  ooX     &:146661>>;===<<<<",
"<83232:2:<<<<<132>;;:;;&@oXoo<<<<<%XX666>++++:14466652>:===<<<<<",
"<5235--><<<<<<272:;>>:;=&@@o%<<<<<<*26664444446666633>:;==<<<<<<",
"<<53--><<<<<<1481;;21>;=&*@o%<<<<<<76633333333333222>:;===<<<<<<",
"<<<<<<<<<<<<<144>;;41:;=&;@o%<<<<<<4>1>>>>>>1111111>:;===<<<<<<<",
"<<<<<<<<<<<<<1>>:==;:;=&=;*%<<<<<<<41>;;--=;;;;;;;:::;;=<<<<<<<<",
"<<<<<<<<<<<<<<:;==**==%%@=%%<<<<<<<<21>;-=&%%&*=======<<<<<<<<<<",
"<<<<<<<<<<<<<<>=;;-**=*%@%%<<<<<<<<<<21>:;         XX%<<<<<<<<<<",
"<<<<<<<<<<<<<<<>42>=&:=*@%@<<<<<<<<<<<<<%oXX      Xo%<<<<<<<<<<<",
"<<<<<<<<<<<<<<<341>=&;;*%%@2222222222222&%@@+X  Xoo%<<<<<<<<<<<<",
"<<<<<<<<<<<<<<6411>=&:;=*=&1355555555551;;--=%oo@@&<<<<<<<<<<<<<",
"<<<<<<<<<<<<<<64321>;;;;--;:23455777554111>>;=&&&%<<<<<<<<<<<<<<",
"<<<<<<<<<<<<<<3633311>:;;;:>1123555555552221>;==%<<<<<<<<<<<<<<<",
"<<<<<<<<<<<<<<3359954311111224445555554453331:;%o<<<<<<<<<<<<<<<",
"<<<<<<<<<<<<<<3358899965555555555555555555521-XXo<<<<<<<<<<<<<<<",
"<<<<<<<<<<<<<<3358899969965543321>>:;;&==%@@oXXXo<<<<<<<<<<<<<<<",
"<<<<<<<<<<<<<44359999987765542241>>:;;=&&%@@o@@XXoo<<<<<<<<<<<<<",
"<<<<<<<<<<<<488899999987765543321>>:;;=&&%oo@ooXXXXooo<<<<<<<<<<",
"<<<<<<<<<55598899998889997776555333211>::;==%@@oXXXXooooo%%%&&*=",
"<<<<<<<<577798899888887776665554433211>::;==&%%o@XXXooooo@@@@@%&",
"<<<<<<<<7788899998886666655544433113>>>::;;;=%%&oooXXXooo@@@@@@@",
"<<<<<<<<7888999999998876655544433221>>>::;;;:;;**@@oXXooo@@@@@@@",
"<<<<<<<<<89999998888999997776555444322211>>>:--%-@@@XXo@@@@@@@%%",
"<<<<<<<<<<55999888877776666654464332221>>1::;--&%@@@oo%%%%%%&&&&",
"<<<<<<<<<<<<<33377766665555544433222111>>:::;==&%%%&==------;;;;",
"<<<<<<<<<<<<<<<>=:>23333331111111111::::::;;=%%%&==-;;;<<<<<<<<<"
};
