/* XPM */
static char *a60b2eec582d4d3c9f5b6ce8fb18a57563YgxmfCBJ6Cl3ee[] = {
/* columns rows colors chars-per-pixel */
"64 64 215 2 ",
"   c black",
".  c #38362F",
"X  c #3C3A30",
"o  c #363B3B",
"O  c #373733",
"+  c #413E36",
"@  c #4A463A",
"#  c #49463D",
"$  c #514D3B",
"%  c #383E40",
"&  c #3D4345",
"*  c #3E464A",
"=  c #3F4A4F",
"-  c #3F4A51",
";  c #434645",
":  c #4B4E4A",
">  c #474A48",
",  c #524E43",
"<  c #5A5443",
"1  c #53534B",
"2  c #5A564A",
"3  c #5C5A4D",
"4  c #595545",
"5  c #434D52",
"6  c #434F58",
"7  c #4D5354",
"8  c #455159",
"9  c #4C565B",
"0  c #475259",
"q  c #5D5C53",
"w  c #545B5C",
"e  c #5C5D5A",
"r  c #555755",
"t  c #4F504E",
"y  c #625E4D",
"u  c #615947",
"i  c #625F54",
"p  c #605E59",
"a  c #5F615E",
"s  c #66614E",
"d  c #646256",
"f  c #6A6653",
"g  c #64635C",
"h  c #69665D",
"j  c #6C6A5D",
"k  c #6C6856",
"l  c #726D5B",
"z  c #75715E",
"x  c #4E5C63",
"c  c #535E64",
"v  c #595F62",
"b  c #556066",
"n  c #5C6364",
"m  c #55626A",
"M  c #5A656C",
"N  c #5D696D",
"B  c #596771",
"V  c #5C6A73",
"C  c #5D6E7A",
"Z  c #566573",
"A  c #5E707C",
"S  c #636564",
"D  c #666A66",
"F  c #6C6B63",
"G  c #636B6D",
"H  c #6B6D6B",
"J  c #616768",
"K  c #716E64",
"L  c #716F69",
"P  c #6C716E",
"I  c #737164",
"U  c #73726C",
"Y  c #79766B",
"T  c #7B796D",
"R  c #7A7563",
"E  c #626E75",
"W  c #626F79",
"Q  c #657274",
"!  c #6B7474",
"~  c #64727C",
"^  c #6A747B",
"/  c #6C7A7C",
"(  c #6A7875",
")  c #737573",
"_  c #777876",
"`  c #7B7B75",
"'  c #737A7C",
"]  c #7B7D7B",
"[  c #777774",
"{  c #827C6C",
"}  c #817D73",
"|  c #807D79",
" . c #7E807D",
".. c #848273",
"X. c #82837C",
"o. c #89877D",
"O. c #8A8575",
"+. c #657582",
"@. c #697781",
"#. c #6C7B84",
"$. c #6C7C8B",
"%. c #657B86",
"&. c #727D83",
"*. c #717F8A",
"=. c #7A7F81",
"-. c #6E838C",
";. c #748184",
":. c #7C8384",
">. c #74828B",
",. c #7B868B",
"<. c #7E898D",
"1. c #6E8193",
"2. c #748592",
"3. c #798792",
"4. c #7C8A94",
"5. c #76899A",
"6. c #7C8D9B",
"7. c #748897",
"8. c #7D90A5",
"9. c #838583",
"0. c #868886",
"q. c #8A8A85",
"w. c #818789",
"e. c #848B8C",
"r. c #8A8D8C",
"t. c #918F86",
"y. c #8D908D",
"u. c #949185",
"i. c #93938C",
"p. c #9B9A8C",
"a. c #99968A",
"s. c #848D93",
"d. c #888E94",
"f. c #818F99",
"g. c #888F98",
"h. c #869095",
"j. c #8B9294",
"k. c #85929B",
"l. c #8B959B",
"z. c #8E999D",
"x. c #929594",
"c. c #969996",
"v. c #9A9A95",
"b. c #929699",
"n. c #949A9C",
"m. c #9B9D9C",
"M. c #9A9797",
"N. c #A09F98",
"B. c #9EA19E",
"V. c #A1A19E",
"C. c #A9A59D",
"Z. c #A6A498",
"A. c #8395A5",
"S. c #8C96A1",
"D. c #8E9AA4",
"F. c #8C9DAB",
"G. c #869AAB",
"H. c #949DA3",
"J. c #9A9EA3",
"K. c #929EA9",
"L. c #969BA5",
"P. c #A19EA4",
"I. c #96A0A5",
"U. c #9DA2A4",
"Y. c #94A1AB",
"T. c #9CA4AB",
"R. c #9FA9AF",
"E. c #8EA1B1",
"W. c #93A4B4",
"Q. c #9AA6B2",
"!. c #9DA9B2",
"~. c #9DADBB",
"^. c #96AABC",
"/. c #A3A4A3",
"(. c #A6A8A6",
"). c #ABAAA6",
"_. c #A3A5A9",
"`. c #A5A9AB",
"'. c #ABACAB",
"]. c #A9A5A9",
"[. c #B3B2AE",
"{. c #B9B4AA",
"}. c #A3ACB4",
"|. c #ABAEB2",
" X c #A2AFBA",
".X c #ADB1B4",
"XX c #ACB3BA",
"oX c #A6B0BC",
"OX c #B2B3B4",
"+X c #B1B6BB",
"@X c #B5B9BD",
"#X c #BABBBC",
"$X c #B9B8B5",
"%X c #AEB0AD",
"&X c #C1BEB6",
"*X c #C7C3BB",
"=X c #9AAEC1",
"-X c #9EB1C2",
";X c #AAB7C2",
":X c #AAB9C8",
">X c #B4BBC2",
",X c #BABEC2",
"<X c #BABDC8",
"1X c #ACBFD2",
"2X c #BEC2C6",
"3X c #BCC1C4",
"4X c #BDC3CA",
"5X c #B5C1CD",
"6X c #BDCCDB",
"7X c #C1C3C5",
"8X c #C2C5CA",
"9X c #C8CACD",
"0X c #C5CBD1",
"qX c #CFD3D7",
"wX c #E1E1DF",
/* pixels */
"                                                                                                                                ",
"                                                                                                                                ",
"                                                                                                                                ",
"                                                                                                                                ",
"                                                                                                                                ",
"                                                                                                                                ",
"                                            OX2X2X#X@X}.XX    ,X        2X  @X>X0X8X,X,X>XXX+X+X+X@X7X7X,XXX;X;X                ",
"                                0X8X3X7X8X4X>X8X4X2X2X3X3X3X2X2X8X8X2X2X,X3X>X>X2X2X;XXX>XoX+X,X@XOX|.|.+X1XQ.F.                ",
"                        ,X>XOX>X,X+X+X.X|..X+X>XXX2X8X<X,X+X8X0X2X4X3X>XXX>X>X<X4X;XoXXXXX+XOX#X@X.XR.+X;X^.4.,.                ",
"                $X@X@X@XOX.X3X2X#XXX|.U.`.'.#X3X.X#X@XOX%XOX@X,XOX`.|.}.Q.XX2X4XoX}.~.|.OXOX/.].(.XX X;X~.^.;.Q (               ",
"            wXwXqX>XOXOX|..X#X@X|.`..X.X_.B..X@X}.OX'.'.[.'.%X|.`.n.'.>X+X+X2XQ.J.Y.Q.P.].'.T.T.R.}. X5X5XG.-.Q D               ",
"            &X$X8X2X7X3X+X2XOX|..X`.`.XX}.`.OX.X_.`.(.].%X].|./._.'.].}.}.XX!.L.}.J.|.P.(.T.z.z.z.U. X6X5X8.-. .(               ",
"          {.{./.%X).).*X9X9X#X.X>X}.`..X(._.`.J.U.(./.$XOXOX'.'.OX}.J.J.J.}.K.Q.Y.L.`._.S.S.B.D.I.R.XX5X~.6. . .! :.            ",
"          &X{.[.[.).C.C.).#X8X4XXX`.T.'.(.U./.H.`.(.'.#X'.'.[.m./.'.XX>XXX}.L.J.P.P.P.L.K.U.z.I.U.R. X;XE.6.A  .( ;.            ",
"          &X{.[./.).%X).[.(.'.3X@X.XT.V.B.`.H.'.'.).).'.'.]..X'._.'.+XXXT.J.J.].|.].P.A.H.H.l.D.I.I.XX5X-XG.;.-.;.;.            ",
"          *X{.%X/.]./.V.'.'.].%X$X8X.XB.x.P.U.'.OXV.V./.'.OX|.m.U.'.'.`.T./.P.P.L.g.g.g.H.z.b.H.B.R. X^.-XE.;.( ;. . .          ",
"          OX/.).V.m././././.'.V.V.#X2X}.T.|./.(.(.B.B.V.'.|.v.v.|.|.}.>X<X].P.J.n.>.z.z.h.z.D.H.T. XR.~.^.W.#.( A ( -.          ",
"          {.)./.m.m.m./.].).).]././.(.XX+X+XOX/._.n.U././.(.V./.].].;X4X<XP.M.b.S.l.T.Y.z.H.z.U.R.R.I.T.^.W.;. .Q Q  .          ",
"          {./.m.J.x.m./.].'.(.'.(./.C.3X7X#X).V.B.m.m.m.N.m./.N.P./.J.}.P.P.S.A.l.j.n.I.l.n.z.I.Y.!.I. X:X=X>.#. .A A ;.        ",
"          $X].x.(.m.m.m./././././.V.V.[.7X@X(.V._._.c.m.P.V./.m.`.T.g.P.P.J.L.k.s.j.H.H.l.T.Y.H.R.R.I.E.8.A.6.;. . .N Q         ",
"          $XOXb.J.U.'.m.i.m.m.B.P.M.a.p.OX7X.X_.`.`.U._.%XV.U._.J.J.S.].|.T.S.Y.H.I.U.n.H.L.L.L.^.G./ C ~ 2.,.>.-.-. .V         ",
"          '.`./._./.(.M.x.(.V.%X/.a.q.o.t./.m./..X}.`.`.`.`.@X5X+X<XP.L.P.S.f.S.D.I.T.T.Q.Y.K.W.6.-.~ %.2.1.2.>.-.Z  .A         ",
"          ).]./..X`.'.L.b./.'.`./.x.v.v.V.(.r.M.m.j.:.l.b.(.oXQ.XXJ.L.d.H.D.G.K.D.Y.Y.R.K.Y.^.A.A ;.-.7.7.-.-.>. . . . .        ",
"          ).m.n.|.U.m./.U.U.U.n.x.n.v.v.(.@XU.M.9.) U 9.9.r.j.h.b.b.L.g.l.6.A.F.K.T.!.!.-XW.F.6.-.A A 7.1.1.%.>.-. .A  .        ",
"          [.V.B.'.`.j.U.XX'.c.c.x./.M.a.B.3XXXH.b.0._ _ ] 0.j.b.].}.Q.A.A.G.F.W. XoX XE.=X3.#.+.+.Z $.5.1.%.%.2.-. .Z  .        ",
"          OX`./.m._.l.m.T.U.U.J.x.m./.m.B.3X:Xl.l.I.n.e. .r.c.B.XX_.f.5.G.Y.T.Q.`.-XG.2.*.+.B c m +.5.1.$.%.~ >.-.-.A x         ",
"          '.(.m.m.OXn.m.b.c.m.m.j.x.B.m.B.|.5XR.T.I.n.U.T.`.+X#XOXA.*.A.K.Q.L.L.K.g.1.$.*.$.v c C +.+.+.+.+.#.>.-. . . .        ",
"          m.b.c.m.(.m.j.b.m.x.x.b.b.i.x.x.y.oX}.Y.H.T.U..XR.U.+X7X_.G.Y.Q.W.Q.!.A.+.$.$.$.W c B Z B C +.+.$.;.%.-.-.A Z         ",
"          N.d.l.U.`.J.b.m.c.a.r.r.q.y.q.i.y.T.n.x.s.l.L.b.r.9./.[.L.,.g.s.L.Q.L.>.V $.$.+.V c m B +.3.5.1.6.7.-.-. .-.Z         ",
"          /._.J.n.n.j.j.n.v.v.y.q.o.u.q.v.v.I.n.I.d.r.d.r.9.r.m.M._ ' ] P ^ _ =.' Q W W Z V C +.+.$.$.Z A 7.1.7.7.-.-.x         ",
"          `.`.S.j.j.d.j.n.c.i.r.i.i.p.Z.Z.v.v.U.T.k.d.b.x.] ] q.x.[ ' ' ) ! D ) ' ^ M V V W C C @.@.>.+.A -.7.7.1.7.-. . .      ",
"        `.J.I.n.j.s.r.b.H.l.j.b.c.i.a.a.B.B.`.U.n.k.d.e.r.9.e.M.M.` H H G S e U =.@.B C W W C C +.+.+.*.-.Z  .7.7.-.1.-.-.      ",
"        x.j.z.l. .e.s.y.r.z.c.j.c.y.a.p.C.v.I.H.d.g.b.*.d.r.x.x.M.| H n e g H X.d.>.V ~ ~ W E C $.~ ~ $.*.v W &.*.$.7.1.%.      ",
"        d.e.d.s.4.h.j.r.<.y.y.i.c.v.x.p.C./.J.r.r.b.b.g.r.9.e.r.t.U L e a D U r.:.E $./ #.~ ~ V C ~ ~ ^ *.@.#.*.*.3.6.-.A       ",
"        n.d.e.l.<.l.h.<.y.y.p.B.B.V.B.v.i.v.J.j.x.M.b.w.w.X.r.r.Y Y H p U ) ` 0.:.E E B ^ ^ ^ ^ V #.+.~ *.f.5.*.*.6.2.%.        ",
"        z.j.d.d.:.' ,.r.e.y.y.o.i.B.B.c.t.c.b.j.b.T.e.| 9.e.0.U F T L H ]  . .` _ G E E ^ ~ ~ +.*.+.W C *.f.3.*.*.4.2.#.        ",
"        d.h.e.<.:.,.e.,. .y.B.c.c.T.U.B.x.q.x.r.r.m.r.9.q.r.9.[ _ Y I F  .| | Y _ J Q N b E #.V W W W $.*.,.*.&.#.;.;.C         ",
"      n.j.h./ :.h.:.e.<.y.s.y.B.B.`.U.e.x.0.r.r.m.m.r.:.d.d.r.! D [ T ` X.9.} [ ` J E b b M ^ ~ Z c ^ &.+.3.*.@.V b N M         ",
"      n.z.l.#.<.w.<.s.h.h.<.<.<.j.|.I.9.9.9.0.9.x.x._ 9.b.9.) g H ` } q.9.} U ..9.n n b B E W ^ ~ B &.*.f.f.*.W 9 * 7           ",
"      T.z.4.<.h.h.s.,.,.,.<.q. .0.b.c.e.0.9.9.X.r.e.] r.e.9.) F U ` o.o.| ` ..X.9.G n M ^ ~ ^ *.2.5.*.g.4.f.W 9 & o o           ",
"       XD.*.<.h.z.4.,. .;.h.n.y.y.U.b.0. .`  .0.x.9.X.r.9.9.] ] | X.X.u.X.X.t.t.9.H H M :.V M / >.C +.>.,.2.b 7 * o *           ",
"      H.4.$.>.l.<.4.,.,.,.4.h.j.x.I.I.0. . .o.r.c.q.:.r.:.U T 9.| L Y O.Y L h h T P ) ) ^ 9 b w.s.+.E d.,.M w 5 * = 8           ",
"      e.>.4.4.,.<. . .<.<.y.h.s.y.z.n.B.B.y.r.y.m.9.9.i.9.H h i 2 i k u.O.p 1 , 4 h 9.e.! Q ;.,.s.3.&.s.w w 5 & 5 -             ",
"      <.;.k.,.,.4.;.,.<.s.s.s.y.b.B.0. .B.z.y.i.m.] ] ] g y p h K I z O.} j : + $ < k X.;.;.h.h.<.^ :.v > w * = 8 -             ",
"      _ / ,.E ! 4.4.l.h.j.4.j.h.j.y.0.r.c.y.y.x.q.p 3 h D g F U [ ) U ....{ p > 1 d k s K :.x.b.=.&.! ; r 9 5 8 6 5             ",
"      :.' / G &.l.z.6.l.4.4.l.B.z.r.0.r.j.x.y.c.r.F U ] D q F U L F R ..u.} F t 1 k z j s T y.e.e.*.c 7 H M 9 9 6 5             ",
"      :.:.,.f.f.D.4.4.h.4.4.k.z.z.r. . . .i.B.r.U H  .P a h I j F I T ` p.| K p q g T I I l R  .! n 7 v D c x x 6 5             ",
"      _ k.D.k.d.h.,.,.;.4.l.y.z.j.s.y.s. .c.U.e.H _ U q g H I j K ` I R u.} U U g k T Y I ` j I H c 9 r n a M 6 5 =             ",
"        U.z.' =.:.<.,.<.z.D.h.n.j.w.e.:. .y.U.<.) :.H a h F j F j R j k ` h h F q k ..i.9.e.r.q.] b 7 7 w D B 5 6               ",
"        j.! G ,.&.,.3.,.H.D.D.l.s.e.,.,.<.n.B.:.i. .a g h j j F I  .K k z p g d 3 k O./.m.r.X.r.:.w : e n E b 5 8               ",
"          D / ' M ,.k.h.z.z.z.<.s.l.<.9.s.n.r. .:.a a a g  .U g k j f k z d d q y z O.v._ g K t.:.7 > S G H 6 5 ;               ",
"              ' G ,.h.e.4.4.z.z.j.h.d.l.b.B.0. ._ a a D F F h d d y 4 4 l k 4 3 y l O.q.q 1 T ) > ; ; F S v * * 5               ",
"                    h.y.h.z.B.k.d.j.h.b.:.:.] ' P q r d F F U h d 3 3 s f y 3 4 y { o.T , 2 l : + O + k t : * * 5               ",
"                          I.n.' S e G G 1 t q _ H r q 3 3 d h h 3 a f d y $ $ < s { O.4 @ y , . + + , u , : & * *               ",
"                                H g g 1 ; # q U a a a a 3 , 2 2 y d 3 3 4 X $ $ @ l { > @ , X . @ @ < <   ; o o                 ",
"                                                g F a 3 ; $ 4 @ 4 4 X                                                           ",
"                                                                                                                                ",
"                                                                                                                                ",
"                                                                                                                                ",
"                                                                                                                                ",
"                                                                                                                                ",
"                                                                                                                                ",
"                                                                                                                                ",
"                                                                                                                                "
};
