/* XPM */
static char *result[] = {
/* columns rows colors chars-per-pixel */
"64 64 207 2 ",
"   c #CA7E15",
".  c #C77B18",
"X  c #C67A15",
"o  c #CD8719",
"O  c #CD8B1D",
"+  c #D18A1B",
"@  c #D4921C",
"#  c #D89B1F",
"$  c #E7B11F",
"%  c #CD8B22",
"&  c #CD8E2E",
"*  c #C7832B",
"=  c #D08F27",
"-  c #CE912B",
";  c #D39424",
":  c #D69A24",
">  c #DB9D22",
",  c #D2932C",
"<  c #D6992A",
"1  c #D99D2A",
"2  c #CC8E31",
"3  c #CD9732",
"4  c #D29432",
"5  c #D59B33",
"6  c #D39B3A",
"7  c #D89E39",
"8  c #D99C30",
"9  c #DDA123",
"0  c #D7A12A",
"q  c #DBA32C",
"w  c #DFAB2F",
"e  c #D6A133",
"r  c #DBA233",
"t  c #DDAA34",
"y  c #D6A53D",
"u  c #DAA53B",
"i  c #DDAA3E",
"p  c #DDB03F",
"a  c #E1A622",
"s  c #E3AC25",
"d  c #E0A729",
"f  c #E2AC2C",
"g  c #E6B326",
"h  c #E9B525",
"j  c #EDBB26",
"k  c #E6B32B",
"l  c #E8B72F",
"z  c #E6B82F",
"x  c #ECBC2A",
"c  c #F2BF25",
"v  c #E1AD34",
"b  c #E1AF3A",
"n  c #E5B434",
"m  c #E7B934",
"M  c #EABD34",
"N  c #E3B43C",
"B  c #E6BA3A",
"V  c #E9BD3C",
"C  c #EEC327",
"Z  c #EEC32D",
"A  c #F4C326",
"S  c #F8C725",
"D  c #F6CA26",
"F  c #F4C52A",
"G  c #F6CB2B",
"H  c #F8CC2A",
"J  c #F9D427",
"K  c #F6D22D",
"L  c #F9D42D",
"P  c #FADA2E",
"I  c #F7D223",
"U  c #EDC434",
"Y  c #EFCA31",
"T  c #EDC43B",
"R  c #EDC93D",
"E  c #F4CC33",
"W  c #F3CD3A",
"Q  c #F0C534",
"!  c #F6D334",
"~  c #F9D532",
"^  c #F6DA33",
"/  c #FADB33",
"(  c #F6D43C",
")  c #F8D63C",
"_  c #F7D93C",
"`  c #F9DC3C",
"'  c #FCE12E",
"]  c #FCE234",
"[  c #FBE33C",
"{  c #FFEA3F",
"}  c #D8A642",
"|  c #D7A942",
" . c #DCAB41",
".. c #D9AF48",
"X. c #D5A443",
"o. c #DBB045",
"O. c #DDB34A",
"+. c #DFBA4C",
"@. c #D6A951",
"#. c #D7A458",
"$. c #DCAB55",
"%. c #DDB652",
"&. c #E1AF42",
"*. c #E2B443",
"=. c #E5BA44",
"-. c #E8BF45",
";. c #E4BD4B",
":. c #E8BF4A",
">. c #E1B756",
",. c #E1BC53",
"<. c #E7BF59",
"1. c #D8AC64",
"2. c #D6AB79",
"3. c #ECC445",
"4. c #EECA45",
"5. c #EAC44A",
"6. c #EDCB4E",
"7. c #E4C046",
"8. c #F2CE43",
"9. c #F0CC4C",
"0. c #EFD24F",
"q. c #F4D543",
"w. c #F8D742",
"e. c #F6DA44",
"r. c #F9DC43",
"t. c #F3D34D",
"y. c #F6DB4A",
"u. c #F9DE4B",
"i. c #E4C152",
"p. c #E7C856",
"a. c #EDCC52",
"s. c #E3C15A",
"d. c #E7CB5D",
"f. c #EBCD5B",
"g. c #F0CF50",
"h. c #EFD153",
"j. c #F2D551",
"k. c #F5DC54",
"l. c #F8DF53",
"z. c #F6DD58",
"x. c #FBE343",
"c. c #FFEA45",
"v. c #FAE34C",
"b. c #FEEB4A",
"n. c #F6E156",
"m. c #FAE554",
"M. c #FCEA55",
"N. c #F7E35A",
"B. c #FBE65B",
"V. c #FBE85D",
"C. c #FDF25D",
"Z. c #E9CD60",
"A. c #E5C168",
"S. c #E5C461",
"D. c #ECD464",
"F. c #EFD865",
"G. c #EED96B",
"H. c #EED66A",
"J. c #F1DD6B",
"K. c #F2DE62",
"L. c #E4C37A",
"P. c #EDD178",
"I. c #EBD879",
"U. c #F5DF75",
"Y. c #F6E166",
"T. c #FBE761",
"R. c #FBE962",
"E. c #F5E46B",
"W. c #F8E669",
"Q. c #F7EB6F",
"!. c #FBEC6C",
"~. c #FDF26E",
"^. c #F5E470",
"/. c #F7EB76",
"(. c #F9EC72",
"). c #F7E67A",
"_. c #F8E678",
"`. c #F9ED7C",
"'. c #F7E777",
"]. c #FDF576",
"[. c #FBF37C",
"{. c #D6AC88",
"}. c #EFD896",
"|. c #EEDB9F",
" X c #F2DC99",
".X c #FAED83",
"XX c #F8EA8E",
"oX c #FCF283",
"OX c #FBF38F",
"+X c #F8EC99",
"@X c #FCF49F",
"#X c #FAF196",
"$X c #E7CCA9",
"%X c #F1DEB7",
"&X c #F7EBAE",
"*X c #F8ECA3",
"=X c #FAF0A2",
"-X c #FAF3AC",
";X c #FBF4B4",
":X c #FCF7C1",
">X c #FCF8C7",
",X c #FAF4CD",
"<X c #FCFACB",
"1X c #FDFBD3",
"2X c #FDFCDC",
"3X c #FEFEE6",
"4X c #FEFDE8",
/* pixels */
"m.x.x.m.M.v.R.v.x.x.x.x.v.x.W.v.v.x.v.oXs.3 u =.p.j.k.u.] [ [ m.V.V.T.V.B.v.x.[ ] [ [ ] v.R.V.V.R.m.] v.R.M.T.V.B.R.R.R.T.R.V.N.",
"x.[ m.m.[ m.R.x.x.x.x.x.x.Q.N.x.x.m.E.R.).6 7 *.5.6.k.n.v.[ x.V.B.V.V.V.V.V.B.v.x.] ] ] x.R.B.V.R.m./ [ B.T.V.V.N.V.T.R.Y.R.R.B.",
"x.B.v.x.x.V.b.x.x.x.x.b.C.W.[ v.N.V.N.v.~.O.= u -.6.j.n.V.x.b.V.V.V.V.V.V.V.V.R.V.m.[ ] x.R.V.V.V.m.[ [ v.T.V.T.v.v.!.T.Y.T.R.R.",
"n.v.[ [ m.m.x.x.x.x.v.N.n.b.v.N.v.x.V.x.M.d.O 0 n 5.j.z.B.M.m.V.V.T.V.T.V.V.V.B.B.B.B.x.] B.B.R.T.m.[ [ ] M.T.V.V.x.M.R.R.R.R.R.",
"W [ [ v.m.x.x.[ x.N.M.x.m.V.M.x.[ m.R.x.B.G.2 r n V 4.z.B.V.m.m.B.V.T.B.T.V.V.V.V.V.V.R.[ v.R.B.V.V.x.[ ] [ B.T.R.m.[ B.R.R.R.R.",
"U ! x.m.[ [ x.N.V.x.[ x.R.N.[ x.[ N.m.N.R.G.2 y *.5.q.y.M.V.B.c.x.M.B.B.V.V.R.T.V.V.B.R.V.v.B.R.V.T.v.[ ] [ [ m.R.R.v.[ B.R.R.R.",
"z R n.v.v.M.V.R.[ [ x.v.N.x.x.x.v.M.x.[ M.D.& u =.p.j.l.v.V.V.v.] [ ] [ [ x.b.m.M.V.R.V.R.V.b.B.V.V.V.v.] ] ] [ v.V.R.v.[ m.R.R.",
"p a.k.v.v.v.V.[ [ { [ M.x.x.x.x.B.x.x.[ C.i.- i =.6.j.n.m.v.V.M.[ ' ] ] ] ] ] ] [ x.v.B.T.V.V.m.T.R.V.R.M.[ ` ] ] x.m.R.N.x.v.N.",
"n U ^ [ v.B.x.[ [ [ v.v.[ [ x.V.x.x.c.x.~.X.6 o.5.a.k.B.B.M.v.V.c.] ] ] ] ] ] ] ] ] ' [ m.R.R.m.v.V.R.R.V.V.B.m.x.x.x.x.v.v.v.x.",
"z Y _ v.m.b.[ [ [ x.m.[ [ v.M.x.x.[ [ R.G.- q z M W y.n.V.R.M.v.m.] ] / / ] [ x.x.x.x.[ / x.V.R.[ [ v.m.V.V.T.V.M.m.v.m.v.M.N.V.",
"M 8.y.x.b.[ [ [ { M.[ b.v.b.[ [ x.x.m.[.e # 9 g Z E P ~ v.m.V.M.v.[ ' / c.B.V.T.V.V.B.B.M.x.[ V.V.[ ] ] [ [ [ [ v.N.V.R.R.W.R.R.",
"7.R ^ v.x.] [ x.N.M.N.M.v.x.v.M.v.B.].O.O 9 g T 9.j.u.` P ` v.V.v.x.] v.R.T.V.V.V.B.V.T.V.R.v.x.V.v.] [ / ] x.B.R.R.V.V.R.R.R.R.",
"x Y e.x.] [ b.M.b.b.x.x.v.M.M.v.!.oX..o : 9 v 5.6.j.z.N.x./ P v.m.[ v.V.V.V.V.V.V.R.V.R.V.V.R.m.v.V.[ ] ] v.T.V.V.R.V.V.R.Y.R.R.",
"B 5.8._ x.B.v.[ ] ] [ x.x.x.W.-X4X,X%.; O # v ;.6.t.j.z.m.` P / m.v.B.M.V.R.V.T.B.m.v.x.x.v.B.R.M.B.c.] x.V.V.V.V.V.V.V.W.V.M.v.",
"t m R 8.y.[ ] [ ] { x.v.Q.;X3X2X#XV.b.m.7.: q =.5.6.t.n.B.B.x./ ^ v.B.B.V.T.R.v.` / P P / / / [ m.B.m./ N.V.V.R.V.V.R.V.v.x.x.x.",
"q.n t z Y Y ' ] [ N..X>X4X<X.Xx.' [ v.x.{ y.i i ;.5.t.k.n.B.V.m.[ ` m.V.V.M.[ P P / [ x.[ / / / P [ B.v.B.R.V.V.V.R.N.v.v.M.R.R.",
"b.v.0 0 k U 8.E.=X<X3X:X/.[ ] { M.N.c.x.x.[ B.i.&.5.6.j.k.B.B.B.V.M.v.v.m.x.[ x.v.m.v.` / / / ` [ ] [ v.V.V.V.V.T.B.m.B.R.R.R.R.",
"V.@X|.& y A.|.,X2X;X(.] ] b.b.v.b.x.x.b.M.M.M.R.;.b 5.j.k.N.B.M.M.V.V.V.B.R.R.V.B.x.r.v.m.V.R.B.N.v.v.x.n.!.T.T.B.M.T.V.R.R.T.R.",
">X;X.X@.2.$X%X*XW.] ' x.v.{ [ ' ] ] ] ] [ [ b.M.R.*.n 3.t.l.m.M.V.V.B.B.B.m.v.r.x.m.V.R.R.V.v.[ ^ x.N.v.v.x.v.[ v.T.V.V.T.R.R.R.",
"m.] b.L.{.L.f.K P c.v.x.[ [ [ [ [ [ ] [ [ v.m.] [ K.t m U W u.n.m.M.B.m.v.` ` B.V.R.V.B.v./ / P x.T.V.T.T.M.^ ^ M.T.V.T.R.R.T.m.",
"[ M.M.Z.6 g C _ n.v.x.x.x.c.c.x.x.N.m.b.M.m.c.b.x.R.i.v 6.j.n.B.V.B.n.x.r.B.V.V.V.R.V.` L / / P v.T.V.V.V.R.m.] B.V.V.V.Y.R.x.[ ",
"x.[ b.+.: m 4.y.[ P P ] / ] / [ b.b.[ { [ [ [ m.V.M.E. .-.6.k.l.x./ ~ ~ v.V.V.V.V.B./ P / / P L x.T.V.V.T.B.R.m.N.T.V.R.V.x.[ R.",
"x.[ R.e 9 B 3.! P ] P ] ] ] x.v.[ ' [ ] ' [ b.v.] ] R.,.*.3.Q _ ~ L P u.R.V.T.V.V.v.r.` P P / L ` V.V.V.V.T.V.T.V.V.V.B.x.P x.R.",
"b.b.,.  0 p T R r.r.x.` x.v.[ ' ' [ ] ] [ M.V.v.m.v.C.Z.8 k x q.! P r.V.V.V.V.V.V.V.R.R.m.~ P / P v.T.V.V.V.V.V.T.B.v.^ ' ^ v.R.",
"v.c.B e < 9 g Z K ^ r.m.m.v.x.x.[ x.x.x.b.[ ] x.M.v.M.G.@ 9 T t.G ~ m.V.V.T.V.B.V.V.V.V.R.m.L / / ~ x.V.R.R.V.V.V.V.T.v.[ ] ^ B.",
"x.x.c.b.y.s 9 g Z K J P r.x.` [ x.[ [ [ ] ] b.v.[ ] { W.; 9 5.W G ~ M.V.B.T.m.v.V.V.V.V.V.T.v.L ~ / P ` m.R.R.R.V.V.T.R.V.N.x.x.",
"[ ] x.v.[ { z 9 m U ! ^ / x.x./ ] ] ] [ c.v.M.b.b.v.x.!.< 1 5.U D K e.V.V.m._ _ V.V.V.V.B.V.R.v.~ P / L ~ ` v.B.T.R.W.V.T.R.!.B.",
"[ x.c.x.x.{ { p 1 V 4.e.r.r.m.m.x.x.x.x.v.v.[ ] ] [ b.Q., } =.j E ( r.V.V.u.) ^ n.R.T.V.R.V.B.R.m.` / L P P L / ` x.v.m.m.m.B.T.",
"v.x.] ] ] [ c.x.0 q z G ^ / / / _ [ ` [ c.] ] ] x.x.x.Q.y  .N T k.N.R.T.V.V.V.m.u.m.V.V.R.V.V.V.R.V.m.r.` ~ / P P P / ^ x.m.N.V.",
"P _ x.[ [ ] ] c.R @ s C K ^ / / P P x.x.] / [ v.x.x.M.E.6 u B a.k.B.V.V.V.V.V.V.V.B.m.B.R.V.T.V.B.V.T.V.B.B.m.m.m.M.B.T.R.R.R.T.",
"[ x.x.v.v.v.x.x.[ : 9 j G ^ P ~ [ v.[ P ] [ v.[ ] ' b.G.4 i 7.a.k.n.V.V.V.V.R.V.V.V.B.v.r.m.V.T.T.R.V.R.R.R.!.T.n.B.T.V.V.T.R.T.",
"` ^ ^ / [ x.x.x.c.=.< z T _ e.v.n.x.x.v.m.c./ ] [ ' C.p.4 i 5.h.k.B.V.V.V.V.B.V.V.V.T.R.u.L / r.r.v.v.v.u.r.` ^ v.B.V.T.V.V.R.V.",
"/ ` [ ` ` [ c.v.b.4.; f U ) u.v.v./ / [ r.x.[ ] ] ] (.X.r v l j.k.B.B.v.r.e.e.` _ ` r.m.R.m.H L L K K L L L L v.R.V.R.V.V.R.B.m.",
"x.` ` [ x.m.v.[ ] q.; s C q.` J ` r./ / r.v.B.B.b.V.H., i v s x q.n.B.m.B.B.B.B.M.m.u.) r.V.v.L L P L L ~ L v.R.V.V.B.V.R.m.B.T.",
"P P / / P P x.m.b.n.; s T ( J P / r.[ v.x.] ] c.v.].| 5 *.s x 8.l.T.V.V.R.V.R.V.V.R.R.V.v.` n.u.K L L L J ) R.V.V.R.B.R.B.B.R.R.",
"r.^ / ` x.v.x./ ] t.1 v U H ` ` ` x.v./ P / ] ' ~.d.- &.n n t.n.B.B.V.B.B.V.R.V.V.B.B.V.R.V.n.m._ K L L L n.R.V.V.V.R.B.n.R.T.B.",
"` u.u.x.v.x.v.[ { h.: s U w.` _ _ r.v./ / ] P M.J., i =.B 9.z.n.B.V.M.V.B.v.) ( ! ! ( ( ! _ u.v.v.! ~ L K B.R.V.V.V.T.n.B.T.R.B.",
"` / P P P / x.N.C.i.: B W ! L ~ P ~ x.` P P M.(.u u =.-.9.k.z.B.M.V.V.e.E H D H H H ` H G K H G ! ^ H L L n.R.V.V.V.M.v.T.V.T.V.",
"L L / ` r.x.[ [ ~.u q x A H P L / ~ / r.` V.J.y i *.5.3.j.n.B.V.V.m.( D G G H H F r._ H K K K K D L H ~ L ) B.R.T.V.` m.T.V.V.V.",
"r.r.v.r./ ^ P c.a.@ s M E ~ ~ P L / x.M.Q.f.y &.:.6.3.q.k.B.m.M.B.! D H H H H D _ B.G L G H K E ( r.v.r.w.u.n.m.u.! _ V.V.T.V.y.",
"/ ~ ^ ^ / / x.`.1.$.<.a.k.z.n.v.V.R.E.Z. .u =.:.6.9.x j.B.B.V.V._ S H H H H D ) V.r.G G G ( v.B.R.v._ ! M.R.R.T.v.L r.R.V.R.R._ ",
";X;X=X#XXX.X[.%.#.L.}.&X-XI.f.p.,.*.y r *.:.5.6.t.U A ( B.B.V.) F H H S F G r.T.B.G S ( v.V.T.v.! H H e.R.B.V.V.R._ r.R.T.R.T.x.",
"Y._.XX;X<XOXp ; s g j E w.W 3 * 4 5 i *.-.5.j.j.W q.n.v.v.u.E S S S F E e.m.V.T._ E v.B.V.T.u.) G K K v.R.V.V.V.T.m.r.T.R.R.R.m.",
"L / [ R.K.0 @ a l T E H H L r...4  .*.-.5.g.t.U r.T.M.V.B.m.v.u.y.u.v.V.R.V.V.u.q.V.R.T.V.V.V.T.N.! G v.R.V.V.T.V.V.r.T.T.R.T.T.",
"z.J.d.i ; > d g x E w.w.! L L r. .7 *.5.6.T c Z m.B.V.M.V.V.V.V.V.V.V.V.B.R.n.r.V.V.V.V.l.V.V.V.V.M.K e.R.B.V.V.V.T.u.N.R.R.W.R.",
"~ % X + q N -.T W W ( r.u.u.) ^ N.} v v g h x F m.V.M.V.M.V.M.V.M.V.B.B.V.v.u.R.R.B.R.e.) R.V.V.B.R.e.! V.V.V.V.V.T.B.v.R.R.T.R.",
"` T = 1 v m M Q F D K H ~ ) u.e.v.f.r f s h j A w.V.V.M.M.V.M.B.V.M.V.V.u.e.V.V.B.V.m.F ) R.V.V.V.V.V.! e.T.V.T.V.V.T.m.n.T.R.v.",
"e.v.< @ a h A W q.! L L L H P e.^ v.o.o.3.M x A S e.M.V.C.V.V.V.V.m.v.e.u.V.V.V.V.V.( G E B.V.V.V.V.T.m.G v.!.B.V.V.V.V.v._ _ ! ",
"H / b ; s h c S E l.w.) ) ` ) ) e.M.f.u 5.a.t.( E F G q.u.u.u.u.q.u.l.q.B.V.V.V.R.u.F ( G u.R.V.V.V.V.T.m.! y.T.V.V.V.V.!.m.^ ^ ",
"r.x. .% b V Q ! H ) ( ~ ` ) ) ` ` v.Y.y =.5.j.N.B.m.u.w.w.r.u.u.m.m.E e.V.V.R.V.V.( F w.G G m.R.B.T.V.V.T.B._ r.B.R.T.T.V.R.V.n.",
"_ R.u   1 B Q W w.w.u.~ H L L L / J B.O.b 5.9.k.M.V.V.V.V.R.R.B.q.A F V.V.V.V.V.n.S E r.S G E V.R.V.V.T.V.T.T.v.u.m.N.V.T.R.T.R.",
"_ B.- o > s W G H L ) u.e./ L / P J M.,.b 5.h.k.N.M.V.V.B.u.( A A c r.R.V.V.V.V.w.S r.r.F G H H m.T.V.V.V.V.T.R.T.m.m.B.T.T.T.R.",
"V.D.. ; > g x ( ( L L H ` u.u.e.` ` R.;.1 N 4.y.n.v.u.W F A c A A A l.R.T.V.V.V.E S B._ F H ) r.e.y.m.R.R.V.V.V.V.V.B.T.R.T.T.T.",
"W.3 , r v l U G ) ) H L L ^ e.r.` _ R.i.; N 4.j.B.M.m.m.u.w.W F c E V.B.V.V.R.n.S q.B.E S w.R.R.T.m.e.r.m.R.T.T.R.R.R.T.R.!.T.B.",
"< + 1 b m T E w.e.r.r.L L L J ` r./ M.<.u :.g.z.n.u.r.w.( E E F A F B.V.B.V.R.E E V.n.G E B.V.V.V.T.R.n.! ! e.v.n.m.m.m.n.r.r.v.",
": q d m j A G ! u.~ u.m.r.~ ` ` ` u.!.>.u 5.9.8.q.r.n.B.B.V.V.m.u.E u.R.R.R.u.G B.R.w.S H B.R.V.V.V.V.R.V.n.` ) ~ ) ` r.x.n.T.R.",
">.f l R 8.H G L w.L L ` N.v.e.` ` r./.u o.B M y.M.V.V.V.m.( Q F A F F q.u.W ( B.R.V.E D D u.R.V.V.V.T.B.V.R.R.R.R.T.R.!.R.!.T.T.",
"%XP.F A ) q.! K e.~ ~ J ~ n.v.` / v.J.7 v n j.N.M.V.V.w.( E E S c c A A E y.T.B.T.r.F H H H B.R.V.T.V.V.V.V.V.T.R.T.T.T.T.R.T.n.",
" X:X+Xq.I ) w._ u.~ ~ / ~ ^ u.` ` ].,.8 v 9.j.m.B.m.u.m.B.V.V.m.m.u.m.m.R.R.B.B.m.G G G S F E n.T.R.V.V.V.V.V.V.V.V.R.T.R.N.n.m.",
"T U.>X>XY.D L P r.` J ~ / P / r.V.J.8 r 5.t.z.B.B.e.M.V.M.V.M.V.T.R.R.B.V.V.B.R.W S S D H H H H _ m.V.T.R.R.R.T.R.B.B.m.e.v.R.R.",
"E ! k.*X2X+Xw.I ~ N.u.` ` ` P c.`. .1 N 9.j.N.V.e.w.V.M.V.M.V.M.V.B.V.V.V.B.V.) D E e.n.m.N.B.m.u.r.v.u.u.u.u.u.w.~ ^ L v.R.T.T.",
"G H ! _ E.>X1X).~ J v.x.` ` R./.%.d d 5.j.z.B.M.G u.V.V.M.V.M.V.R.T.V.B.R.V.) q.m.T.T.R.V.R.R.R.!.!.R.R.B.u.e.~ K L K x.R.T.T.R.",
"l.! P ^ ^ e..X1X>X'.` e.v.V.^.;.v s M j.k.n.T.u.S ( V.M.V.M.M.V.V.V.R.R.m.e.l.V.T.V.V.V.V.V.T.B.n.e.q._ _ ) ` _ ! ^ ^ T.R.T.R.R.",
"_ u.) r._ ` _ e.=X2X=XR.'.D.5.3.l c ( n.B.B.B._ S G r.V.V.M.V.V.V.B.B.w.( B.R.B.V.V.V.V.V.N.e.! H K H K H L H H L L y.R.T.T.T.B."
};
